<svg xmlns="http://www.w3.org/2000/svg" viewBox="0 0 1200 750" role="img" aria-labelledby="title">
  <title id="title">Vibe coding demo cover placeholder</title>
  <rect width="1200" height="750" fill="#181818"/>
  <g stroke="#F4F1EA" stroke-opacity="0.14" stroke-width="2">
    <path d="M0 150H1200"/>
    <path d="M0 300H1200"/>
    <path d="M0 450H1200"/>
    <path d="M0 600H1200"/>
    <path d="M200 0V750"/>
    <path d="M400 0V750"/>
    <path d="M600 0V750"/>
    <path d="M800 0V750"/>
    <path d="M1000 0V750"/>
  </g>
  <rect x="80" y="80" width="360" height="70" fill="#B7FF3C"/>
  <text x="96" y="124" font-family="monospace" font-size="24" font-weight="700" fill="#181818">VIBE CODING</text>
  <rect x="80" y="190" width="520" height="10" fill="#F4F1EA"/>
  <rect x="80" y="218" width="440" height="10" fill="#F4F1EA" opacity="0.5"/>
  <rect x="80" y="246" width="480" height="10" fill="#F4F1EA" opacity="0.5"/>
  <rect x="80" y="320" width="260" height="180" fill="#F4F1EA"/>
  <rect x="380" y="320" width="260" height="180" fill="#F4F1EA" opacity="0.7"/>
  <rect x="80" y="340" width="180" height="22" fill="#181818"/>
  <rect x="380" y="340" width="180" height="22" fill="#181818" opacity="0.6"/>
  <rect x="80" y="384" width="220" height="10" fill="#181818" opacity="0.4"/>
  <rect x="380" y="384" width="220" height="10" fill="#181818" opacity="0.3"/>
  <rect x="80" y="410" width="200" height="10" fill="#181818" opacity="0.4"/>
  <rect x="380" y="410" width="180" height="10" fill="#181818" opacity="0.3"/>
  <rect x="80" y="540" width="180" height="5" fill="#F4F1EA" opacity="0.4"/>
  <text x="980" y="700" font-family="monospace" font-size="20" font-weight="700" fill="#B7FF3C">DEMO</text>
</svg>
